# xmcd
#
# Track frame offsets: 
#        150
#        17912
#        35887
#        53962
#        69367
#        99842
#        116137
#        132455
#        133835
#        147902
#        166300
#        190605
#        208137
#        229962
#        258715
#        273527
#        303237
#
# Disc length: 4332 seconds
#
# Revision: 3
# Processed by: cddbd v1.5.2PL0 Copyright (c) Steve Scherf et al.
# Submitted via: ExactAudioCopy v1.0b3
#
DISCID=0710ea11
DTITLE=古井戸 - 古井戸ベストアルバム 1971-1974 Disc 2 GNCL-1281
DYEAR=1900
DGENRE=Folk
TTITLE0=落ち葉の上を
TTITLE1=バラード
TTITLE2=らびん・すぷんふる
TTITLE3=おいてきぼり
TTITLE4=東京脱出
TTITLE5=びしょぬれワルツ
TTITLE6=賛美歌
TTITLE7=fluid vol.4
TTITLE8=ひなまつり
TTITLE9=春たけなわ
TTITLE10=セントルイス・ブルース
TTITLE11=早く帰りたい
TTITLE12=ラブソング
TTITLE13=少年
TTITLE14=きまぐれラプソディー
TTITLE15=四季の詩
TTITLE16=花言葉～さなえちゃん
EXTD=
EXTT0=
EXTT1=
EXTT2=
EXTT3=
EXTT4=
EXTT5=
EXTT6=
EXTT7=
EXTT8=
EXTT9=
EXTT10=
EXTT11=
EXTT12=
EXTT13=
EXTT14=
EXTT15=
EXTT16=
PLAYORDER=
